<?xml version="1.0" encoding="UTF-8" standalone="no"?><svg xmlns="http://www.w3.org/2000/svg" fill="none" viewBox="0 0 20 20"><metadata/><rect width="20" height="20" rx="10" fill="#171717"/><g clip-path="url(#a)"><path d="M16.165 16.956c-.186-.247-.277-.536-.571-.738-.384-.263-.585-.72-.777-1.15-.022-.05-.044-.108-.076-.16-.225-.45-.772-1.379-.897-1.692v-.009c0-.003-.004-.008-.005-.013-.141-.367-.486-1.65-.478-2.299 0-.224-.009-.449-.027-.674a1.544 1.544 0 0 0-.108-.493 1.27 1.27 0 0 0-.518-.608c-.102-.066-.207-.128-.306-.197a2.29 2.29 0 0 1-.098-.072c-.246-.192-.31-.48-.327-.766-.008-.128-.05-.142-.142-.172-.23-.077-.467-.14-.66-.298-.23-.184-.497-.188-.766-.202h-.054c-.048 0-.116.056-.143-.01a.414.414 0 0 0-.018-.04c-.032-.059-.063-.077-.095-.077-.063 0-.127.089-.188.116-.299-.7-.322-.725-1.007-1.105a8.519 8.519 0 0 1-.46-.279 2.048 2.048 0 0 0-.73-.276c-.127-.023-.265-.077-.396-.014-.144.07-.094.236-.14.354a.376.376 0 0 1-.039-.012l-.011-.006-.012-.005c-.105-.088-.077-.153-.438-.402-.36-.248-.486-.55-.7-.752-.131-.171-.172-.07-.22.053-.016.167-.105.307-.17.453a1.478 1.478 0 0 0 0 1.26c.136.294 1.605 2.039 1.808 2.245.31.316.237 1.01.358 1.451.178.735 2.733 2.146 2.782 2.237l-.118.037c.209.55 1.483.153 1.973 1.033.175.316.888.443 1.356 1.256.056.098.419.667.586.816l.166.146c.003.003.92.743 1.427 1.044.072.044.146.086.22.126.096-.014.055-.056.02-.106zM8.815 12.809c-.067-.072-.168-.16-.26-.094-.134.1-.169-.004-.23-.072-.158-.17-.276-.418-.511-.463-.217-.041-.258-.15-.307-.325-.091-.338-.306-.46-.679-.423-.082.009-.094-.036-.11-.083-.137-.398-.24-.8-.592-1.088-.11-.09-.162-.244-.34-.164-.099.045-.108-.014-.116-.083-.073-.638-1.21-1.852-1.839-2.182-.131.175-.161.383-.18.57.099.518.35.964.669 1.375.05.064 1.74 2.192 1.819 2.249.306.216.498.613.943.613a.076.076 0 0 1 .058.033.076.076 0 0 1 .01.066c-.057.248.134.344.288.436.595.36 1.168.748 1.667 1.237.077.077.162.157.285.1.124-.056.137-.186.121-.306-.074-.54-.328-.998-.696-1.396zM10.345 14.194c-.085-.153-.218-.28-.417-.23-.198.05-.23.205-.191.384a.199.199 0 0 1-.01.076c-.094.395.205.835.613.899.23.036.388-.213.294-.497a3.548 3.548 0 0 0-.289-.632zM11.27 15.409c-.076-.098-.096-.277-.297-.132-.047.035-.19-.025-.224.077-.04.117.056.218.141.265a4.28 4.28 0 0 0 1.338.518c-.14-.11-.267-.29-.42-.318-.271-.05-.394-.234-.537-.41zM3.456 7.317c-.153-.173-.291-.362-.436-.545a.266.266 0 0 0 .016.23c.166.338.388.651.452 1.061.262-.397.257-.423-.032-.746ZM16.998 12.078c-.004-.275-.054-.55-.23-.761-.357-.421-.585-.907-.775-1.415-.06-.16-.182-.36-.084-.487.154-.201.034-.274-.076-.383-.136-.132-1.24-1.175-1.617-1.285-.077-.033-.166-.007-.297.068-.05.03-.084.115-.158.06-.062-.045-.022-.115-.022-.176 0-.35-.018-.695-.144-1.019-.123-.018-.178.182-.287.089-.077-.067-.025-.194 0-.284.142-.506-.153-.868-.414-1.227-.193-.263-.264-.23-.468.035a.621.621 0 0 1-.242.225c.062-.411-.06-.788-.017-1.175.026-.246-.269-.485-.507-.53-.716-.135-2.097-1.133-2.108-.804 0 .16.129.656.31.571l.028.149c-.023.217.142.703.148.725.012.046.603.892.797 1.073.039.035 1.732 1.671 2.489 2.314.054.045 1.751 1.84 2.076 2.207.025.03.051.059.077.087l.026.028c.285.3.609.568.71 1.002a.076.076 0 0 0 .033.041c.352.23.46.621.624.976.157.114.129-.028.128-.104z" fill="#26b89a"/><path d="M12.202 9.719c-.482-.182-.558-.888-.635-1.11a.67.67 0 0 0-.387-.437 38.17 38.17 0 0 0-1.098-.34c-.088-.019-.115.038-.23.143-.047.045-.22-.108-.366-.292a2.912 2.912 0 0 0-.69-.62c-.1.112-.19.233-.27.36-.835 1.346-.307 3.187 1.181 4.112 1.05.654 2.3.675 3.236.157-.01-.403-.285-1.8-.74-1.973Z" fill="#137361"/><path opacity=".29" d="m13.313 11.449.052-.042-.007-.026-.045.068z" fill="#2a2c2d"/><path d="M12.203 9.719c-.482-.183-.559-.888-.636-1.11a.67.67 0 0 0-.387-.437 38.079 38.079 0 0 0-1.097-.34c-.089-.02-.116.038-.23.143-.048.045-.22-.108-.367-.292a2.328 2.328 0 0 0-.301-.32c-.07.081-.133.168-.19.26-.705 1.137-.259 2.693.997 3.475.94.586 2.069.571 2.873.05-.105-.562-.338-1.306-.662-1.43z" fill="#179a81"/><path d="M12.203 9.719c-.482-.182-.56-.888-.636-1.11a.67.67 0 0 0-.387-.437 38.17 38.17 0 0 0-1.097-.34c-.086-.018-.115.035-.217.134-.042.05-.081.103-.117.159-.47.759-.172 1.796.666 2.317.744.46 1.664.364 2.19-.196-.11-.26-.245-.466-.402-.527Z" fill="#fff"/><path d="M5.25 4.655c.06.121.2.23.3.164.13-.077.1-.28-.023-.427a2.132 2.132 0 0 0-.447-.411c-.07-.042-.154-.113-.256-.004.215.185.306.438.426.678ZM4.027 3.76c-.062.034.085.37.186.432.022.014.047.025.07.039.133.081.246-.015.198-.112l-.127-.24c-.06-.098-.184-.199-.327-.12ZM5.263 4.989c-.103-.077-.182-.119-.34-.218-.025-.011-.045 0-.055.032-.09.306.059.513.292.69.092.068.158.047.193-.041.065-.168.078-.339-.09-.463ZM13.335 11.216l.056.238a.714.714 0 0 1-.091.11" fill="#26b89a"/><path d="M11.567 8.61a.67.67 0 0 0-.387-.438 6.282 6.282 0 0 0-.198-.065.525.525 0 0 1-.737.696 1.038 1.038 0 0 0 .501 1.041c.46.287 1.043.2 1.332-.19-.369-.246-.443-.844-.51-1.045Z" fill="#2a2c2d"/></g><defs><clipPath id="a"><path fill="#fff" d="M3 2.94h14v14.12H3z"/></clipPath></defs></svg>