<?xml version="1.0" encoding="UTF-8" standalone="no"?><svg xmlns="http://www.w3.org/2000/svg" fill="none" viewBox="0 0 20 20"><metadata/><g clip-path="url(#a)"><circle cx="10" cy="10" r="10" fill="#fff"/><path d="M11.338 6h1.978c.905.031 1.6-.094 2.425.247.705.336 1.099.844 1.232 1.59.071.438 0 .888-.204 1.287-.178.336-.669.805-1.007.961-.442.206-.91.255-2.42.256h-1.36V14h-.644zm4.05 3.536c1.244-.588 1.22-2.193-.042-2.752-.281-.125-.349-.13-1.814-.13H12.01l-.015 1.463c-.01.804-.002 1.497.015 1.54.025.062.304.073 1.537.057.692-.006 1.212.064 1.842-.178z" fill="#ed577d"/><path d="m5.929 10.078-1.147-1.6c-.487-.68-.975-1.358-1.465-2.035L3 6.006h1.965l.789 1.134c.301.434.606.866.915 1.296l.124.164.89-1.273c.489-.698.921-1.283.96-1.297.038-.015.484-.02.988-.011l.919.016-2.924 4.053V14H5.93Z" fill="#2c2121"/></g><defs><clipPath id="a"><path fill="#fff" d="M0 0h20v20H0z"/></clipPath></defs></svg>