<?xml version="1.0" encoding="UTF-8" standalone="no"?><svg xmlns="http://www.w3.org/2000/svg" fill="none" viewBox="0 0 20 20"><metadata/><rect width="20" height="20" rx="10" fill="#fff"/><g clip-path="url(#a)"><path d="M15.702 9.448a6.347 6.347 0 1 1-12.693 0 6.347 6.347 0 0 1 12.693 0z" fill="#ccc"/><path d="M15.386 9.448a6.028 6.028 0 1 1-12.057 0 6.028 6.028 0 0 1 12.056 0z" fill="#fff"/><path d="M15.007 9.448a5.652 5.652 0 1 1-11.304 0 5.652 5.652 0 0 1 11.304 0z" fill="#231f20"/><path d="M15.007 9.448a5.652 5.652 0 1 1-11.304 0 5.652 5.652 0 0 1 11.304 0z" fill="url(#b)" style="fill:url(#b)"/><path d="M8.083 13.092c-1.962 0-3.558-1.58-3.558-3.52 0-1.942 1.596-3.52 3.558-3.52 1.962 0 3.558 1.578 3.558 3.52 0 1.94-1.595 3.52-3.557 3.52z" fill="#fff"/><path d="M8.083 5.964c2.01 0 3.644 1.615 3.644 3.608 0 1.992-1.631 3.607-3.644 3.607s-3.645-1.613-3.645-3.607c0-1.995 1.632-3.608 3.645-3.608zm0 .173c-1.915 0-3.472 1.54-3.472 3.435 0 1.893 1.557 3.434 3.472 3.434 1.914 0 3.47-1.54 3.47-3.434 0-1.894-1.556-3.431-3.47-3.431z" fill="#231f20"/><path d="M6.757 9.01a1.232 1.232 0 0 1-.365-.439 1.072 1.072 0 0 1-.067-.65c.075-.38.314-.656.719-.828.315-.131.702-.152 1.16-.063.608.119 1.034.322 1.279.61a1.093 1.093 0 0 1 .268.96 1.05 1.05 0 0 1-.286.538c-.14.133-.304.237-.484.305.205.144.364.344.458.576.083.216.103.452.056.68a1.361 1.361 0 0 1-.28.602 1.3 1.3 0 0 1-.474.383 1.586 1.586 0 0 1-.614.126 3.382 3.382 0 0 1-.737-.067c-.481-.095-.838-.223-1.072-.387a1.268 1.268 0 0 1-.481-.615c-.09-.25-.108-.519-.054-.779a1.114 1.114 0 0 1 .976-.958Zm.292 1.16a.695.695 0 0 0 .086.527.578.578 0 0 0 .382.271.55.55 0 0 0 .443-.114.777.777 0 0 0 .191-.984.573.573 0 0 0-.382-.274.558.558 0 0 0-.447.105.715.715 0 0 0-.273.468Zm.45-1.943a.514.514 0 0 0 .073.408.546.546 0 0 0 .363.22.485.485 0 0 0 .525-.222.514.514 0 0 0 .071-.192.53.53 0 0 0-.893-.493.525.525 0 0 0-.14.279Z" fill="#231f20"/><path d="M16.948 13.063c-.106-.742-.75-1.248-1.299-1.561a5.62 5.62 0 0 0-.297-.158 9.081 9.081 0 0 0-.36-.168l-.05-.023c-.229.05-.355.305-.186.588l.046.033c.111.07.227.135.346.193l.15.078.14.078c.396.224.885.54.913 1.01.031.545-.36.953-.683 1.09-.402.167-1.072.163-1.684.119a17.15 17.15 0 0 1-.436-.037l-.115-.012a28.54 28.54 0 0 1-.417-.045c-.958-.11-2.746-.33-3.442-.335-1.783-.021-2.031.619-2.087 1.084-.274-.043-.342-.13-.495-.335.042.167.082.32.12.463.042.162.082.314.118.465a7.303 7.303 0 0 1 .194 1.259c.077-.264.178-.52.301-.767a3.051 3.051 0 0 1 .442-.637c.11-.123.232-.244.37-.372-.303.09-.386.087-.664.013.111-.733 1.109-.828 2.073-.777 1.134.06 1.778.191 2.541.328.175.031.356.067.552.094.14.023.29.045.447.067l.09.013c.719.095 1.531.114 2.164-.072.544-.165 1.3-.595 1.208-1.676z" fill="#6e161f"/></g><defs><radialGradient id="b" cx="0" cy="0" r="1" gradientUnits="userSpaceOnUse" gradientTransform="translate(7.802 8.354) scale(7.2599)"><stop stop-color="#fff"/><stop offset=".87"/></radialGradient><clipPath id="a"><path fill="#fff" d="M3 3.1h14v13.8H3z"/></clipPath></defs></svg>